<svg xmlns="http://www.w3.org/2000/svg" width="48" height="48" viewBox="0 0 48 48">
    <g data-name="그룹 43005">
        <path data-name="패스 41935" d="M72.977 10V6h4v32h-26V6h4v4zm-16-8h14v6h-14zm-2-2v4h-6v36h30V4h-6V0z" transform="translate(-39.977 4)" style="fill:#477fe9"/>
        <path data-name="사각형 24930" transform="translate(17 18)" style="fill:#477fe9" d="M0 0h18v2H0z"/>
        <path data-name="사각형 24931" transform="translate(13 18)" style="fill:#477fe9" d="M0 0h2v2H0z"/>
        <path data-name="사각형 24932" transform="translate(17 24)" style="fill:#477fe9" d="M0 0h15v2H0z"/>
        <path data-name="사각형 24933" transform="translate(13 24)" style="fill:#477fe9" d="M0 0h2v2H0z"/>
        <path data-name="사각형 24934" transform="translate(17 30)" style="fill:#477fe9" d="M0 0h12v2H0z"/>
        <path data-name="사각형 24935" transform="translate(13 30)" style="fill:#477fe9" d="M0 0h2v2H0z"/>
        <path data-name="사각형 24936" transform="translate(17 36)" style="fill:#477fe9" d="M0 0h9v2H0z"/>
        <path data-name="사각형 24937" transform="translate(13 36)" style="fill:#477fe9" d="M0 0h2v2H0z"/>
    </g>
</svg>
