<svg xmlns="http://www.w3.org/2000/svg" width="48" height="48" viewBox="0 0 48 48">
    <g data-name="그룹 42997">
        <path data-name="패스 41920" d="M32 38a4 4 0 1 1 4-4 4 4 0 0 1-4 4m0-6a2 2 0 1 0 2 2 2 2 0 0 0-2-2" style="fill:#477fe9"/>
        <path data-name="패스 41921" d="M40 34c0-.2-.015-.388-.029-.58L42 31.636l-2.952-5.114-2.554.864a8.008 8.008 0 0 0-.924-.535L35 24h-6l-.57 2.851a8.231 8.231 0 0 0-.923.535l-2.554-.864L22 31.636l2.03 1.784c-.014.192-.03.38-.03.58s.016.388.03.581L22 36.364l2.953 5.114 2.554-.864a7.852 7.852 0 0 0 .923.535L29 44h6l.57-2.851a8.007 8.007 0 0 0 .924-.535l2.554.864L42 36.364l-2.029-1.783c.014-.193.029-.381.029-.581m-4.21 4.265a5.72 5.72 0 0 1-1.907 1.124L33.36 42h-2.72l-.523-2.611a5.73 5.73 0 0 1-1.907-1.124l-2.345.793-1.313-2.274 1.848-1.627a5.738 5.738 0 0 1 0-2.313l-1.848-1.628 1.313-2.274 2.346.793a5.715 5.715 0 0 1 1.906-1.124L30.64 26h2.72l.523 2.611a5.73 5.73 0 0 1 1.907 1.124l2.345-.793 1.313 2.274-1.848 1.628a5.738 5.738 0 0 1 0 2.313l1.851 1.627-1.313 2.274z" style="fill:#477fe9"/>
        <path data-name="패스 41922" d="M24 22a9 9 0 1 1 9-9 9.01 9.01 0 0 1-9 9m0-16a7 7 0 1 0 7 7 7.008 7.008 0 0 0-7-7" style="fill:#477fe9"/>
        <path data-name="패스 41924" d="M16 17H0v-1A16.018 16.018 0 0 1 16 0v2A14.02 14.02 0 0 0 2.035 15H16z" transform="translate(6 24)" style="fill:#477fe9"/>
    </g>
</svg>
