<svg xmlns="http://www.w3.org/2000/svg" width="48" height="48" viewBox="0 0 48 48">
    <g data-name="그룹 43029">
        <path data-name="패스 42074" d="M-2438.468-2325.49h-4v2h16v-2h-4v-2h7v-14h-22v14h7zm-5-4v-10h18v10z" style="fill:#477fe9" transform="translate(2449.468 2345.488)"/>
        <path data-name="패스 42075" d="M-2405.468-2305.489v-14h-22v14h7v2h-4v2h16v-2h-4v-2zm-20-2v-10h18v10z" style="fill:#477fe9" transform="translate(2449.468 2345.488)"/>
        <path data-name="패스 42076" d="M-2412.468-2327.49h-2l3 4 3-4h-2v-7h-9v2h7z" style="fill:#477fe9" transform="translate(2449.468 2345.488)"/>
        <path data-name="패스 42077" d="M-2438.468-2315.49h2l-3-4-3 4h2v7h9v-2h-7z" style="fill:#477fe9" transform="translate(2449.468 2345.488)"/>
    </g>
</svg>
