<svg xmlns="http://www.w3.org/2000/svg" width="48" height="48" viewBox="0 0 48 48">
    <path data-name="합치기 725" d="M15864 18352a8 8 0 0 1 0-16h1a9 9 0 0 1 16.493-4.984 7 7 0 0 1 6.441 6.018 8 8 0 0 1-2.932 14.9v.063z" transform="translate(-15850 -18321)" style="fill:#e0f1ff"/>
    <path data-name="패스 41829" d="M3-3c1.9 1.1 3 4.343 3 6a3 3 0 0 1-6 0c0-1.657 1.194-4.957 3-6z" transform="translate(11 36)" style="fill:#146ee6"/>
    <path data-name="패스 41830" d="M3-3c1.9 1.1 3 4.343 3 6a3 3 0 0 1-6 0c0-1.657 1.194-4.957 3-6z" transform="translate(21 36)" style="fill:#146ee6"/>
    <path data-name="패스 41831" d="M3-3c1.9 1.1 3 4.343 3 6a3 3 0 0 1-6 0c0-1.657 1.194-4.957 3-6z" transform="translate(31 36)" style="fill:#146ee6"/>
</svg>
