<svg xmlns="http://www.w3.org/2000/svg" width="48" height="48" viewBox="0 0 48 48">
    <g data-name="그룹 42999">
        <path data-name="사각형 24925" transform="translate(23 4.002)" style="fill:#477fe9" d="M0 0h2v7.999H0z"/>
        <path data-name="사각형 24926" transform="translate(32 17)" style="fill:#477fe9" d="M0 0h8v2H0z"/>
        <path data-name="사각형 24927" transform="translate(8 17)" style="fill:#477fe9" d="M0 0h8v2H0z"/>
        <path data-name="패스 41934" d="M36 36v-1a17.985 17.985 0 0 0-17-17.949V15h3v-2h-8v2h3v2.051A17.985 17.985 0 0 0 0 35v1h15v2H0v2h36v-2H21v-2zM2.031 34a16 16 0 0 1 31.937 0zM19 38h-2v-2h2z" transform="translate(6 4)" style="fill:#477fe9"/>
        <path data-name="사각형 24928" transform="rotate(-45 17.157 -11.693)" style="fill:#477fe9" d="M0 0h2v7.071H0z"/>
        <path data-name="사각형 24929" transform="rotate(-45 28.985 -28.006)" style="fill:#477fe9" d="M0 0h7.071v2H0z"/>
    </g>
</svg>
