<svg xmlns="http://www.w3.org/2000/svg" width="48" height="48" viewBox="0 0 48 48">
    <g data-name="그룹 43004">
        <path data-name="패스 41936" d="m24.184 45.6 5.109 5.109 1.414-1.414-5.107-5.111a6.944 6.944 0 0 0 0-8.368l7.383-7.383A3.947 3.947 0 0 0 35 29a4 4 0 1 0-4-4 3.947 3.947 0 0 0 .567 2.019L24.184 34.4A6.947 6.947 0 0 0 21 33.08V29.9a5 5 0 1 0-2 0v3.18A7 7 0 0 0 13.08 39H9.9a5 5 0 1 0 0 2h3.18a6.947 6.947 0 0 0 1.32 3.184l-6.647 6.649a5.015 5.015 0 1 0 1.414 1.414l6.649-6.647A6.947 6.947 0 0 0 19 46.92v4.222a4 4 0 1 0 2 0V46.92a6.947 6.947 0 0 0 3.184-1.32M5 43a3 3 0 1 1 3-3 3 3 0 0 1-3 3m30-20a2 2 0 1 1-2 2 2 2 0 0 1 2-2m-18 2a3 3 0 1 1 3 3 3 3 0 0 1-3-3m3 10a5 5 0 1 1-5 5 5.006 5.006 0 0 1 5-5M5 58a3 3 0 1 1 3-3 3 3 0 0 1-3 3m17-3a2 2 0 1 1-2-2 2 2 0 0 1 2 2" transform="translate(4 -16)" style="fill:#477fe9"/>
        <path data-name="패스 41937" d="M35 50a5 5 0 1 0 5 5 5.006 5.006 0 0 0-5-5m0 8a3 3 0 1 1 3-3 3 3 0 0 1-3 3" transform="translate(4 -16)" style="fill:#477fe9"/>
    </g>
</svg>
