<svg xmlns="http://www.w3.org/2000/svg" width="120" height="120" viewBox="0 0 120 120">
    <g data-name="그룹 26451">
        <path data-name="패스 41331" d="M10 15a2.5 2.5 0 0 0 2.5-2.5v-10a2.5 2.5 0 0 0-5 0v10A2.5 2.5 0 0 0 10 15" transform="translate(50 15)" style="fill:#c9d0de"/>
        <path data-name="패스 41332" d="M12.5 11a2.511 2.511 0 0 0 1.77-.73l5-5a2.5 2.5 0 0 0-3.54-3.54l-5 5A2.5 2.5 0 0 0 12.5 11" transform="translate(59.999 18.999)" style="fill:#c9d0de"/>
        <path data-name="패스 41333" d="M9.735 10.267a2.5 2.5 0 0 0 3.53-3.535l-5-5a2.5 2.5 0 0 0-3.53 3.535z" transform="translate(36 19.003)" style="fill:#c9d0de"/>
        <path data-name="패스 41334" d="M79.925 46.12a2.265 2.265 0 0 0-.04-.365l-12.5-40A2.5 2.5 0 0 0 65 4H15a2.5 2.5 0 0 0-2.385 1.755l-12.5 40a2.264 2.264 0 0 0-.04.365A2.433 2.433 0 0 0 0 46.5v20A2.5 2.5 0 0 0 2.5 69h75a2.5 2.5 0 0 0 2.5-2.5v-20a2.432 2.432 0 0 0-.075-.38M16.84 9h46.32L74.1 44H52.25a2.5 2.5 0 0 0-2.45 2 10 10 0 0 1-19.6 0 2.5 2.5 0 0 0-2.45-2H5.9zM75 64H5V49h20.86a15 15 0 0 0 28.28 0H75z" transform="translate(20 31)" style="fill:#c9d0de"/>
        <path data-name="패스 41335" d="M9.224 17.819a15.623 15.623 0 0 1 21.555 0 2.5 2.5 0 0 0 3.445-3.625 20.6 20.6 0 0 0-28.445 0 2.5 2.5 0 0 0 3.445 3.625" transform="translate(40.001 48.991)" style="fill:#c9d0de"/>
        <path data-name="패스 33036" d="m305.337 425.055.73-.73a2.5 2.5 0 0 0-3.535-3.535l-.73.73-.73-.73a2.5 2.5 0 1 0-3.535 3.535l.73.73-.73.73a2.5 2.5 0 1 0 3.535 3.535l.73-.73.73.73a2.5 2.5 0 0 0 3.535-3.535z" transform="translate(-256.805 -375.054)" style="fill:#c9d0de"/>
        <path data-name="패스 41338" d="m305.337 425.055.73-.73a2.5 2.5 0 0 0-3.535-3.535l-.73.73-.73-.73a2.5 2.5 0 1 0-3.535 3.535l.73.73-.73.73a2.5 2.5 0 1 0 3.535 3.535l.73-.73.73.73a2.5 2.5 0 0 0 3.535-3.535z" transform="translate(-226.805 -375.054)" style="fill:#c9d0de"/>
    </g>
</svg>
