<svg xmlns="http://www.w3.org/2000/svg" width="48" height="48" viewBox="0 0 48 48">
    <path data-name="패스 41853" d="M18 8A10 10 0 1 1 8 18 10 10 0 0 1 18 8" transform="translate(6 6)" style="fill:#ffd150"/>
    <path data-name="패스 41854" d="M18 6a1 1 0 0 1-1-1V1a1 1 0 0 1 2 0v4a1 1 0 0 1-1 1" transform="translate(6 6)" style="fill:#ffd150"/>
    <path data-name="패스 41855" d="M18 36a1 1 0 0 1-1-1v-4a1 1 0 0 1 2 0v4a1 1 0 0 1-1 1" transform="translate(6 6)" style="fill:#ffd150"/>
    <path data-name="패스 41856" d="M35 19h-4a1 1 0 0 1 0-2h4a1 1 0 0 1 0 2" transform="translate(6 6)" style="fill:#ffd150"/>
    <path data-name="패스 41857" d="M5 19H1a1 1 0 0 1 0-2h4a1 1 0 0 1 0 2" transform="translate(6 6)" style="fill:#ffd150"/>
    <path data-name="패스 41864" d="M3 4a1 1 0 0 1-.707-.293l-2-2A1 1 0 0 1 1.707.293l2 2A1 1 0 0 1 3 4" transform="translate(11 11)" style="fill:#ffd150"/>
    <path data-name="패스 41864" d="M3 0a1 1 0 0 0-.707.293l-2 2a1 1 0 0 0 1.414 1.414l2-2A1 1 0 0 0 3 0" transform="translate(11 33)" style="fill:#ffd150"/>
    <path data-name="패스 41864" d="M1 4a1 1 0 0 0 .707-.293l2-2A1 1 0 0 0 2.293.293l-2 2A1 1 0 0 0 1 4" transform="translate(33 11)" style="fill:#ffd150"/>
    <path data-name="패스 41864" d="M1 0a1 1 0 0 1 .707.293l2 2a1 1 0 0 1-1.414 1.414l-2-2A1 1 0 0 1 1 0" transform="translate(33 33)" style="fill:#ffd150"/>
</svg>
