<svg xmlns="http://www.w3.org/2000/svg" width="48" height="48" viewBox="0 0 48 48">
    <path data-name="패스 41853" d="M16 8a8 8 0 1 1-8 8 8 8 0 0 1 8-8" transform="translate(4 4)" style="fill:#ffd150"/>
    <path data-name="패스 41854" d="M18 6a1 1 0 0 1-1-1V3a1 1 0 0 1 2 0v2a1 1 0 0 1-1 1" transform="translate(2 4)" style="fill:#ffd150"/>
    <path data-name="패스 41857" d="M5 19H3a1 1 0 0 1 0-2h2a1 1 0 0 1 0 2" transform="translate(4 2)" style="fill:#ffd150"/>
    <path data-name="패스 41865" d="M5 19H3a1 1 0 0 1 0-2h2a1 1 0 0 1 0 2" transform="translate(28 2)" style="fill:#ffd150"/>
    <path data-name="패스 41864" d="M3 4a1 1 0 0 1-.707-.293l-1-1a1 1 0 0 1 1.414-1.414l1 1A1 1 0 0 1 3 4" transform="translate(9 9)" style="fill:#ffd150"/>
    <path data-name="패스 41864" d="M1 4a1 1 0 0 0 .707-.293l1-1a1 1 0 0 0-1.414-1.414l-1 1A1 1 0 0 0 1 4" transform="translate(27 9)" style="fill:#ffd150"/>
    <path data-name="합치기 726" d="M15864 18352a8 8 0 0 1 0-16h1a9 9 0 0 1 16.493-4.984 7 7 0 0 1 6.441 6.018 8 8 0 0 1-2.932 14.9v.063z" transform="translate(-15849.998 -18310)" style="fill:#e0f1ff"/>
</svg>
