<svg xmlns="http://www.w3.org/2000/svg" width="48" height="48" viewBox="0 0 48 48">
    <circle data-name="타원 5397" cx="9" cy="9" r="9" transform="translate(15 15)" style="fill:#30d1cd"/>
    <path data-name="패스 41844" d="M35 17h-3.586l2.293-2.293a1 1 0 0 0-1.414-1.414L28.586 17h-8.172l6-6H31a1 1 0 0 0 0-2h-2.586l2.293-2.293a1 1 0 0 0-1.414-1.414L27 7.586V5a1 1 0 0 0-2 0v4.586l-6 6V7.414l3.707-3.707a1 1 0 0 0-1.414-1.414L19 4.586V1a1 1 0 0 0-2 0v3.586l-2.293-2.293a1 1 0 0 0-1.414 1.414L17 7.414v8.172l-6-6V5a1 1 0 0 0-2 0v2.586L6.707 5.293a1 1 0 0 0-1.414 1.414L7.586 9H5a1 1 0 0 0 0 2h4.586l6 6H7.414l-3.707-3.707a1 1 0 0 0-1.414 1.414L4.586 17H1a1 1 0 0 0 0 2h3.586l-2.293 2.293a1 1 0 1 0 1.414 1.414L7.414 19h8.172l-6 6H5a1 1 0 0 0 0 2h2.586l-2.293 2.293a1 1 0 1 0 1.414 1.414L9 28.414V31a1 1 0 0 0 2 0v-4.586l6-6v8.172l-3.707 3.707a1 1 0 0 0 1.414 1.414L17 31.414V35a1 1 0 0 0 2 0v-3.586l2.293 2.293a1 1 0 1 0 1.414-1.414L19 28.586v-8.172l6 6V31a1 1 0 0 0 2 0v-2.586l2.293 2.293a1 1 0 0 0 1.414-1.414L28.414 27H31a1 1 0 0 0 0-2h-4.586l-6-6h8.172l3.707 3.707a1 1 0 1 0 1.414-1.414L31.414 19H35a1 1 0 0 0 0-2" transform="translate(6 6)" style="fill:#e0f1ff"/>
</svg>
